<?xml version="1.0" encoding="UTF-8" standalone="no"?>
<!-- Created with Inkscape (http://www.inkscape.org/) -->

<svg
   version="1.1"
   id="svg256"
   width="1102"
   height="600"
   viewBox="0 0 1102 600"
   sodipodi:docname="Logo Foyer Sans Contoure.svg"
   inkscape:version="1.2.1 (9c6d41e410, 2022-07-14)"
   xmlns:inkscape="http://www.inkscape.org/namespaces/inkscape"
   xmlns:sodipodi="http://sodipodi.sourceforge.net/DTD/sodipodi-0.dtd"
   xmlns="http://www.w3.org/2000/svg"
   xmlns:svg="http://www.w3.org/2000/svg">
  <defs
     id="defs260" />
  <sodipodi:namedview
     id="namedview258"
     pagecolor="#ffffff"
     bordercolor="#000000"
     borderopacity="0.25"
     inkscape:showpageshadow="2"
     inkscape:pageopacity="0.0"
     inkscape:pagecheckerboard="0"
     inkscape:deskcolor="#d1d1d1"
     showgrid="false"
     inkscape:zoom="1.1615245"
     inkscape:cx="575.53672"
     inkscape:cy="300.03672"
     inkscape:window-width="1920"
     inkscape:window-height="1001"
     inkscape:window-x="-9"
     inkscape:window-y="-9"
     inkscape:window-maximized="1"
     inkscape:current-layer="g262" />
  <g
     inkscape:groupmode="layer"
     inkscape:label="Image"
     id="g262"
     style="fill:#ffffff">
    <path
       style="fill:#ffffff"
       d="m 533.95641,395.95734 c -2.75177,-3.31568 -3.98917,-11.04528 -3.98549,-24.89595 0.003,-12.63784 0.22445,-14.45203 2.14386,-17.59107 1.95534,-3.19779 2.20799,-3.32731 2.92598,-1.5 0.43222,1.1 0.81748,6.58321 0.85613,12.1849 0.1109,16.06958 3.05157,19.96624 7.58874,10.05577 3.3088,-7.22738 3.62785,-8.81972 16.47828,-82.24067 2.11779,-12.1 4.59924,-26.25174 5.51434,-31.44831 1.92396,-10.92554 4.1146,-17.05169 6.09751,-17.05169 0.98544,0 1.39142,1.33248 1.39142,4.56682 0,3.92368 -5.13304,34.39945 -12.03149,71.43318 -3.41924,18.35588 -3.94812,21.21847 -6.46638,35 -3.17204,17.35939 -4.43503,21.86135 -8.6968,31 -4.46087,9.56558 -9.13671,13.71549 -11.8161,10.48702 z m 30.04991,-14.23702 0.0391,-3.75 1.44327,3.32297 c 1.14949,2.64659 1.85394,3.19263 3.46086,2.68261 1.16326,-0.3692 2.01759,-0.18838 2.01759,0.42703 0,0.58707 -1.575,1.06739 -3.5,1.06739 -3.38474,0 -3.49871,-0.1235 -3.46086,-3.75 z m 10.16086,2.55 c -1.85541,-1.85541 -1.43477,-3.60007 1.3,-5.39196 3.09338,-2.02686 3.16078,-3.20689 0.25,-4.37688 -1.3802,-0.55477 -1.6508,-0.92889 -0.7,-0.96777 2.68473,-0.10979 3.95,2.17622 3.95,7.13661 0,3.95556 -0.31667,4.8 -1.8,4.8 -0.99,0 -2.34,-0.54 -3,-1.2 z m 3.8,-2.3 c 0,-2.54098 -2.27754,-3.47798 -3.5296,-1.45211 -0.96321,1.55851 0.247,3.95211 1.99822,3.95211 0.96681,0 1.53138,-0.92167 1.53138,-2.5 z m 10.2,2.3 c -1.73915,-1.73915 -1.48133,-9.95333 0.39656,-12.63439 1.6582,-2.36742 5.41617,-2.67034 6.13222,-0.4943 0.24519,0.74512 -0.36501,0.97507 -1.677,0.63198 -2.94896,-0.77117 -5.05178,1.41321 -5.05178,5.24773 0,3.80686 2.48719,6.81635 5.07426,6.13981 1.21061,-0.31658 1.60667,-0.0229 1.24393,0.92235 -0.65369,1.7035 -4.48453,1.82048 -6.11819,0.18682 z m 9.8,-6.8 c 0,-4.58333 0.27482,-8.05851 0.61071,-7.72262 0.72044,0.72044 0.62077,14.82447 -0.10993,15.55516 -0.27543,0.27544 -0.50078,-3.24921 -0.50078,-7.83254 z m 4.70618,3.94803 c 0.31295,-2.44642 0.73208,-4.63553 0.93141,-4.8647 0.81588,-0.93802 0.26117,6.52828 -0.58431,7.8647 -0.59265,0.93678 -0.71519,-0.12241 -0.3471,-3 z m 4.78362,3.03547 c -0.34552,-0.55907 -0.84092,-2.18944 -1.10088,-3.62305 -0.35823,-1.97548 -0.12288,-2.47234 0.97201,-2.05219 0.79457,0.3049 2.27591,-0.0594 3.29187,-0.80962 1.44607,-1.0678 1.58496,-1.63 0.63958,-2.58894 -0.95237,-0.96604 -1.58644,-0.92743 -3,0.18268 -1.63377,1.28306 -1.67093,1.25276 -0.41994,-0.34238 1.74896,-2.23008 3.72596,-2.23894 4.57726,-0.0205 0.46516,1.2122 -0.27845,2.49841 -2.48615,4.30026 -3.22509,2.63218 -3.00238,3.76177 1.03646,5.25702 1.0074,0.37295 0.78047,0.58125 -0.69098,0.63427 -1.20504,0.0434 -2.47369,-0.37847 -2.81923,-0.93755 z m 9.70463,-0.18907 c -0.65694,-0.65695 -1.18754,-1.89193 -1.17912,-2.74444 0.0125,-1.26946 0.1733,-1.30057 0.8882,-0.17188 0.48009,0.75797 1.37319,1.0689 1.98469,0.69099 1.28551,-0.79449 1.44057,0.36496 0.29091,2.17532 -0.61259,0.96466 -1.05878,0.97591 -1.98468,0.05 z m 7.47224,0.5389 c -0.36667,-0.36666 -0.63815,-1.60416 -0.60328,-2.75 0.0609,-2.00037 0.0994,-1.99373 0.96777,0.16667 1.06347,2.64575 2.77142,2.92804 3.6627,0.60539 0.38639,-1.0069 -0.0876,-2.17016 -1.22251,-3 -1.01948,-0.74546 -1.3176,-1.35539 -0.66248,-1.35539 0.65512,0 1.19113,-0.95248 1.19113,-2.11663 0,-1.62479 -0.46506,-1.99502 -2.00138,-1.59326 -1.10076,0.28785 -1.7492,0.11534 -1.44098,-0.38337 0.67766,-1.09647 3.15085,-1.19933 3.76901,-0.15674 0.24458,0.4125 0.76336,3.1125 1.15286,6 0.68602,5.08584 0.63227,5.25 -1.71901,5.25 -1.33494,0 -2.72717,-0.3 -3.09383,-0.66667 z m 8.33333,-0.23239 c 0,-0.571 0.67121,-0.7806 1.49157,-0.46581 2.57653,0.98872 3.15917,-2.79111 0.68361,-4.43481 -1.19635,-0.79434 -2.17518,-2.3035 -2.17518,-3.35369 0,-2.26692 2.68298,-3.56366 4.21127,-2.03536 0.76911,0.76911 0.46413,0.91661 -1.06722,0.51614 -2.85094,-0.74554 -2.89358,2.03418 -0.0616,4.01775 2.78311,1.94937 2.25776,6.03551 -0.83241,6.47438 -1.2375,0.17575 -2.25,-0.14762 -2.25,-0.71861 z m 8.46913,-0.15089 c -0.49788,-0.8056 -0.0907,-0.96473 1.32148,-0.51651 2.99034,0.9491 3.74218,-1.23751 1.31416,-3.82202 -2.97754,-3.16945 -2.62272,-4.44673 0.43682,-1.57245 3.02421,2.8411 2.92273,6.3235 -0.19723,6.76812 -1.1856,0.16895 -2.47946,-0.21677 -2.87523,-0.85714 z m 8.49897,-1.53398 c -0.99968,-2.62934 -0.46726,-4.8426 0.95368,-3.96442 0.43097,0.26635 1.63737,-0.14602 2.6809,-0.91636 1.48546,-1.09661 1.63518,-1.66655 0.6897,-2.62559 -0.95254,-0.96621 -1.58621,-0.93919 -3,0.1279 -1.68876,1.27464 -1.69569,1.24694 -0.11992,-0.47911 1.858,-2.03522 4.82754,-1.48956 4.82754,0.88707 0,0.82957 -1.125,2.24545 -2.5,3.14639 -3.10424,2.03397 -3.20445,4.18933 -0.25,5.37689 l 2.25,0.90438 -2.27475,0.0634 c -1.55795,0.0434 -2.58432,-0.75083 -3.25715,-2.52053 z m -29.88915,-3.99941 c 0.048,-1.16495 0.28494,-1.40189 0.60416,-0.60416 0.28887,0.72186 0.25335,1.58438 -0.0789,1.91666 -0.33229,0.3323 -0.56864,-0.25834 -0.52522,-1.3125 z m -4.84695,-2.41666 c 0,-1.92501 0.2058,-2.7125 0.45733,-1.75 0.25152,0.96249 0.25152,2.5375 0,3.5 -0.25153,0.96249 -0.45733,0.17499 -0.45733,-1.75 z m -50.232,-2.27432 c 0,-1.9842 0.4787,-3.9035 1.06378,-4.26511 0.72434,-0.44765 0.84155,0.57055 0.36734,3.191 -0.92413,5.10658 -1.43112,5.4871 -1.43112,1.07411 z m 36.5,0.27432 c -0.33992,-0.55001 -0.14148,-1 0.44098,-1 0.58246,0 1.05902,0.44999 1.05902,1 0,0.54999 -0.19844,1 -0.44098,1 -0.24254,0 -0.7191,-0.45001 -1.05902,-1 z m 41.15498,-0.25 c 0.6398,-1.03628 3.1081,-0.94236 3.77939,0.14379 0.30382,0.49159 -0.52644,0.8291 -1.84502,0.75 -1.31858,-0.0791 -2.18905,-0.48129 -1.93437,-0.89379 z m -76.90498,-13.83011 c -2.55692,-1.48927 -2.21183,-3.23743 0.36666,-1.85746 1.69573,0.90752 2.44149,0.80407 3.75,-0.52018 1.51336,-1.53154 1.38758,-1.85475 -1.71214,-4.39978 -4.23675,-3.47859 -4.18892,-7.46593 0.0955,-7.95889 1.51251,-0.17403 2.75,0.10105 2.75,0.61132 0,0.51026 -1.125,0.7127 -2.5,0.44984 -2.01899,-0.38595 -2.5,-0.0774 -2.5,1.6035 0,1.14477 1.01251,2.61459 2.25,3.26627 1.2375,0.6517 2.58061,1.68002 2.98469,2.28519 1.38243,2.07039 0.76656,5.52926 -1.16895,6.56512 -2.30202,1.232 -2.12014,1.23389 -4.31574,-0.0449 z m 54.45,-0.1199 c -3.00303,-3.00302 -0.11447,-12.47187 3.39396,-11.12556 2.26286,0.86834 1.62167,4.00168 -1.24643,6.09095 -2.9461,2.14608 -2.47557,4.22591 0.96149,4.24993 1.78123,0.0125 1.91046,0.1966 0.69098,0.98469 -1.94962,1.25994 -2.36175,1.23825 -3.8,-0.20001 z m 3.62933,-8.15229 c 0.25442,-1.32109 -0.15595,-1.73145 -1.47703,-1.47704 -1.00613,0.19376 -1.98787,1.1755 -2.18163,2.18163 -0.25442,1.32108 0.15595,1.73145 1.47703,1.47703 1.00613,-0.19376 1.98787,-1.1755 2.18163,-2.18162 z m 18.67067,8.3523 c -0.33992,-0.55001 0.30852,-1 1.44098,-1 2.61694,0 2.64526,-2.15949 0.059,-4.5 -3.48399,-3.15297 -1.60128,-7.93759 2.09068,-5.31316 1.10719,0.78705 1.02604,0.87802 -0.37853,0.42434 -2.73059,-0.88197 -3.3852,2.22909 -0.84361,4.00929 2.49445,1.74719 2.83126,5.897 0.54967,6.77254 -2.07439,0.79602 -2.19324,0.78 -2.91821,-0.39301 z m -66.83333,-0.66668 c -0.95096,-0.95094 -0.82488,-4.1175 0.18887,-4.74405 0.47055,-0.29082 0.64309,0.58263 0.38343,1.94099 -0.33861,1.7713 -0.0317,2.46974 1.08544,2.46974 2.07756,0 3.02403,-1.70317 2.11052,-3.7979 -0.40827,-0.93616 -0.65066,-2.45537 -0.53865,-3.376 0.12928,-1.06264 -0.63625,-1.79629 -2.09631,-2.00904 -1.78449,-0.26001 -1.94346,-0.48046 -0.70929,-0.98358 2.58354,-1.05318 3.62446,0.35222 4.38213,5.91652 0.69276,5.08767 0.63982,5.25 -1.71231,5.25 -1.33494,0 -2.72717,-0.30001 -3.09383,-0.66668 z m 8.6432,-4.83332 c 0.006,-3.30001 0.1923,-4.52945 0.41486,-2.7321 0.22256,1.79735 0.21797,4.49735 -0.0102,6 -0.22818,1.50265 -0.41027,0.0321 -0.40466,-3.2679 z m 3.84723,-0.35699 c -0.13402,-5.42317 0.0753,-6.26783 1.42469,-5.75 0.86998,0.33385 2.21998,0.60699 3,0.60699 1.0813,0 1.37427,1.36597 1.23323,5.75 l -0.18498,5.75 -0.36946,-5.31285 c -0.30219,-4.34546 -0.67819,-5.25429 -2.06502,-4.99132 -1.22208,0.23175 -1.86112,1.71533 -2.28846,5.31285 l -0.59289,4.99132 z m 9.68545,0.20376 c -0.1884,-3.10926 0.11366,-6.276 0.67124,-7.0372 0.71976,-0.98258 1.00979,0.65595 1,5.64953 -0.0165,8.41064 -1.18681,9.3824 -1.67124,1.38767 z m 10.15745,-0.26499 c 0,-7.10092 0.64388,-9.08178 2.952,-9.08178 2.49431,0 4.77324,2.93114 5.55492,7.14469 0.96831,5.21954 -0.72352,7.85531 -5.0421,7.85531 h -3.46482 z m 6.80563,0.1978 c 0.3337,-4.58914 -1.10342,-8.27958 -3.22418,-8.27958 -2.42051,0 -3.44381,7.52013 -1.51398,11.12607 1.8317,3.42255 4.39426,1.88307 4.73816,-2.84649 z m 13.35147,-0.13657 c -0.13402,-5.42317 0.0753,-6.26783 1.42469,-5.75 0.86998,0.33385 2.21998,0.60699 3,0.60699 1.0813,0 1.37427,1.36597 1.23323,5.75 l -0.18498,5.75 -0.36946,-5.31285 c -0.30219,-4.34546 -0.67819,-5.25429 -2.06502,-4.99132 -1.22208,0.23175 -1.86112,1.71533 -2.28846,5.31285 l -0.59289,4.99132 z m 9.15277,0.35699 c 0.006,-3.30001 0.1923,-4.52945 0.41486,-2.7321 0.22256,1.79735 0.21797,4.49735 -0.0102,6 -0.22818,1.50265 -0.41027,0.0321 -0.40466,-3.2679 z M 516.23711,325.76296 c -1.22655,-0.23459 -3.18301,-1.63391 -4.34769,-3.10958 -1.75874,-2.22836 -2.04603,-3.68308 -1.69521,-8.58392 0.35088,-4.90149 0.88494,-6.29871 3.15346,-8.25 1.50207,-1.29204 3.58085,-2.34914 4.61951,-2.34914 3.29517,0 6.91256,4.1593 7.60997,8.75 l 0.64565,4.25 h -6.12781 c -4.5382,0 -6.12781,0.35735 -6.12781,1.37756 0,2.23141 2.93579,4.02243 6.59345,4.02243 2.61371,0 3.40655,0.41893 3.40655,1.8 0,0.99 -0.6382,1.80001 -1.41821,1.80001 -0.78002,0 -2.01752,0.16181 -2.75,0.35959 -0.73249,0.19777 -2.33532,0.16765 -3.56186,-0.0669 z m 5.73007,-14.57089 c 0,-1.27057 -2.98472,-4.72175 -4.08356,-4.72175 -1.2725,0 -3.91644,3.04127 -3.91644,4.50501 0,0.74918 1.2375,1.51815 2.75,1.70882 3.40021,0.42865 5.25,-0.0971 5.25,-1.49208 z m 10.25,14.49043 c -1.36695,-0.21342 -2.25,-1.05557 -2.25,-2.14579 0,-1.42459 0.76616,-1.771 3.71664,-1.68045 5.22345,0.1603 5.65735,-2.64272 0.8483,-5.48013 -3.81673,-2.25192 -5.52534,-6.14184 -3.86995,-8.81059 1.4545,-2.34489 5.58449,-4.0964 8.10497,-3.43728 3.30329,0.86383 2.75386,3.34206 -0.74094,3.34206 -4.00272,0 -4.92201,1.91993 -1.96813,4.1104 4.89982,3.6335 5.90911,4.95459 5.90911,7.73461 0,4.41142 -4.29821,7.21833 -9.75,6.36717 z m 60.19447,-1.6768 c -2.21122,-2.21122 -2.44447,-3.25987 -2.44447,-10.98993 0,-7.87878 0.15603,-8.54545 2,-8.54545 1.79693,0 2,0.66667 2,6.56574 0,7.39034 1.16689,10.43426 4,10.43426 2.83311,0 4,-3.04392 4,-10.43426 0,-5.89907 0.20307,-6.56574 2,-6.56574 1.87302,0 2,0.66667 2,10.5 0,9.83333 -0.12698,10.5 -2,10.5 -1.19435,0 -2,-0.66667 -2,-1.65499 0,-1.48208 -0.18284,-1.49796 -1.75,-0.152 -3.28562,2.82186 -5.24031,2.90759 -7.80553,0.34237 z m 46.81811,1.34803 c -8.13667,-2.34763 -8.2439,-17.57744 -0.14736,-20.93114 5.53646,-2.29327 9.88478,1.71546 9.88478,9.11283 0,2.88693 -0.0889,2.9349 -5.44098,2.9349 -5.98121,0 -7.16171,0.7935 -5.19069,3.48904 0.89001,1.21715 2.62672,1.78369 5.46797,1.78369 3.39548,0 4.1637,0.34385 4.1637,1.86362 0,1.025 -0.6382,1.86365 -1.41821,1.86365 -0.78002,0 -2.01752,0.18392 -2.75,0.40873 -0.73249,0.22482 -2.78863,-0.0116 -4.56921,-0.52532 z m 5.73742,-14.96487 c 0,-1.01649 -0.93743,-2.34987 -2.08319,-2.96306 -1.66189,-0.88943 -2.47082,-0.76408 -4,0.6198 -2.55822,2.31517 -2.42231,4.2067 0.33319,4.6369 3.59103,0.56065 5.75,-0.30055 5.75,-2.29364 z m 11,15.17592 c -3.83378,-1.04989 -3.23126,-3.66768 0.75237,-3.26886 5.0589,0.50649 5.43368,-2.3301 0.81966,-6.20381 -3.20453,-2.69037 -3.68792,-3.63084 -3.40351,-6.6218 0.25226,-2.65292 0.99257,-3.80137 3.09757,-4.80531 3.14073,-1.49791 6.73392,-0.76544 6.73392,1.37271 0,0.92512 -1.06273,1.43261 -3,1.43261 -4.2868,0 -4.01374,3.20433 0.5,5.8675 3.36361,1.98458 3.96203,3.27716 3.53355,7.6325 -0.3741,3.80252 -4.41698,5.85873 -9.03356,4.59446 z m -172,-14.98162 v -15.11284 l 6.25,0.004 c 6.81819,0.004 11.69091,2.14882 13.78909,6.0693 0.70072,1.3093 1.018,5.12523 0.79438,9.55372 -0.34017,6.73634 -0.65035,7.65166 -3.58865,10.58995 -2.89387,2.89388 -3.91944,3.25602 -10.23056,3.61264 l -7.01426,0.39608 z m 14.80695,6.88716 c 4.91568,-7.25551 0.81922,-18 -6.86271,-18 h -2.94424 v 11.06037 11.06035 l 3.71783,-0.31035 c 2.95845,-0.24698 4.20218,-1.02526 6.08912,-3.81037 z m 74.42201,7.3307 c -4.12759,-1.66072 -5.46736,-11.78738 -2.25624,-17.05386 4.68245,-7.67962 14.02728,-3.83556 14.02728,5.77021 0,2.94248 -0.0213,2.95295 -6,2.95295 -6.31036,0 -6.86976,0.42827 -4.60498,3.52554 1.02415,1.40061 2.48637,1.8643 5.5,1.74412 3.45713,-0.13786 4.10498,0.14358 4.10498,1.78331 0,1.66718 -0.68272,1.93568 -4.75,1.86807 -2.6125,-0.0434 -5.32197,-0.30907 -6.02104,-0.59034 z m 7.77104,-13.75928 c 0,-1.41382 -2.58517,-4.57142 -3.74269,-4.57142 -1.19867,0 -4.25731,3.34434 -4.25731,4.65499 0,0.90251 1.31597,1.34501 4,1.34501 2.8,0 4,-0.42858 4,-1.42858 z m 31,3.92858 c 0,-10.57628 0.71148,-12.38852 3.6931,-9.4069 0.7908,0.79079 1.8005,0.62957 3.65103,-0.58293 5.67981,-3.72156 8.65587,0.58886 8.65587,12.53688 0,7.28627 -0.16765,7.95295 -2,7.95295 -1.79693,0 -2,-0.66668 -2,-6.56574 0,-7.39035 -1.16689,-10.43426 -4,-10.43426 -2.83311,0 -4,3.04391 -4,10.43426 0,5.89906 -0.20307,6.56574 -2,6.56574 -1.87302,0 -2,-0.66668 -2,-10.5 z m -111,-53.5 v -15 h 7 c 6.26761,0 7,0.20352 7,1.94521 0,1.61115 -0.81572,1.99755 -4.75,2.25 l -4.75,0.30479 v 4 c 0,3.99098 0.01,4.00068 4.25,4.3075 3.38816,0.24514 4.25,0.68975 4.25,2.1925 0,1.50275 -0.86184,1.94736 -4.25,2.1925 l -4.25,0.3075 -0.29772,6.25 c -0.25869,5.43075 -0.55362,6.25 -2.25,6.25 -1.84961,0 -1.95228,-0.78888 -1.95228,-15 z m 20.95683,13.16613 c -2.78612,-2.25607 -3.8032,-11.22498 -1.71983,-15.16613 2.80001,-5.29689 9.64184,-6.19317 13.73532,-1.79933 3.13801,3.36825 2.88562,13.0323 -0.42687,16.34477 -2.99102,2.99103 -8.30958,3.27589 -11.58862,0.62069 z m 8.48647,-3.38864 c 1.7818,-2.54388 2.04413,-7.9982 0.52152,-10.84323 -0.5979,-1.11718 -2.08685,-1.93426 -3.52475,-1.93426 -3.04924,0 -4.85372,3.91965 -4.06929,8.83923 0.97635,6.12326 4.26098,7.95229 7.07252,3.93826 z m 51.06567,2.82238 c -2.08363,-2.08362 -2.50897,-3.46211 -2.50897,-8.13134 0,-4.88087 0.38551,-6.00788 2.92308,-8.54545 3.11302,-3.11302 6.4955,-3.68108 9.28761,-1.55978 2.03278,1.54441 3.78931,5.80988 3.78931,9.2018 0,2.30932 -0.30944,2.4349 -6,2.4349 -4.42964,0 -6,0.36054 -6,1.37756 0,2.16859 2.19082,3.44619 6.51268,3.79793 2.73339,0.22246 3.98732,0.79623 3.98732,1.82451 0,1.0796 -1.32875,1.58532 -4.74103,1.80442 -3.96075,0.25433 -5.15396,-0.1085 -7.25,-2.20455 z m 9.49103,-11.77113 c 0,-1.35355 -2.9389,-4.82874 -4.08356,-4.82874 -1.29911,0 -3.91644,3.05506 -3.91644,4.57142 0,1 1.2,1.42858 4,1.42858 2.38991,0 4,-0.47146 4,-1.17126 z m 9,3.67126 c 0,-8.66667 0.2619,-10.5 1.5,-10.5 0.825,0 1.5,0.675 1.5,1.5 0,2.06937 1.34918,1.87662 3.5,-0.5 2.36427,-2.61249 3.50149,-2.53111 3.49368,0.25 -0.004,1.44903 -1.07203,2.8564 -3,3.95349 -2.88051,1.63909 -2.99368,1.96987 -2.99368,8.75 0,6.37984 -0.18922,7.04651 -2,7.04651 -1.87302,0 -2,-0.66667 -2,-10.5 z m -49.08772,5.25 c -3.76737,-5.16449 -12.3336,-22.73819 -13.77036,-28.25 l -1.04268,-4 2.99026,3.5 c 4.90037,5.73573 17.57096,33 15.33617,33 -0.22722,0 -1.80823,-1.91251 -3.51339,-4.25 z m 20.98648,-42.63089 c -1.84692,-1.49555 -2.36443,-3.08017 -2.6896,-8.23549 -0.34122,-5.40968 -0.0717,-6.80318 1.76667,-9.13362 2.71236,-3.43838 4.31663,-3.46495 6.95159,-0.11514 3.6119,4.59178 2.49776,15.99685 -1.78669,18.28982 -1.51265,0.80955 -2.47248,0.62727 -4.24197,-0.80557 z"
       id="path427" />
  </g>
</svg>
